<svg width="1200" height="630" viewBox="0 0 1200 630" fill="none" xmlns="http://www.w3.org/2000/svg" role="img" aria-labelledby="title desc">
  <title id="title">Alexandre Martins | Software Engineer</title>
  <desc id="desc">Prévia visual do portfólio e blog técnico de Alexandre Martins.</desc>
  <rect width="1200" height="630" fill="#FAFAFA"/>
  <g opacity="0.75">
    <path d="M0 90H1200" stroke="#E4E4E7" stroke-width="1"/>
    <path d="M0 180H1200" stroke="#E4E4E7" stroke-width="1"/>
    <path d="M0 270H1200" stroke="#E4E4E7" stroke-width="1"/>
    <path d="M0 360H1200" stroke="#E4E4E7" stroke-width="1"/>
    <path d="M0 450H1200" stroke="#E4E4E7" stroke-width="1"/>
    <path d="M0 540H1200" stroke="#E4E4E7" stroke-width="1"/>
    <path d="M120 0V630" stroke="#E4E4E7" stroke-width="1"/>
    <path d="M240 0V630" stroke="#E4E4E7" stroke-width="1"/>
    <path d="M360 0V630" stroke="#E4E4E7" stroke-width="1"/>
    <path d="M480 0V630" stroke="#E4E4E7" stroke-width="1"/>
    <path d="M600 0V630" stroke="#E4E4E7" stroke-width="1"/>
    <path d="M720 0V630" stroke="#E4E4E7" stroke-width="1"/>
    <path d="M840 0V630" stroke="#E4E4E7" stroke-width="1"/>
    <path d="M960 0V630" stroke="#E4E4E7" stroke-width="1"/>
    <path d="M1080 0V630" stroke="#E4E4E7" stroke-width="1"/>
  </g>
  <circle cx="1010" cy="170" r="118" stroke="#D4D4D8" stroke-width="2"/>
  <circle cx="1010" cy="170" r="82" fill="#18181B"/>
  <text x="1010" y="184" text-anchor="middle" fill="white" font-size="48" font-family="Inter, Arial, sans-serif" font-weight="700">AM</text>
  <text x="104" y="120" fill="#71717A" font-size="22" font-family="Inter, Arial, sans-serif" font-weight="500" letter-spacing="0.18em">SOFTWARE ENGINEER</text>
  <text x="104" y="214" fill="#18181B" font-size="68" font-family="Inter, Arial, sans-serif" font-weight="700">Alexandre Martins</text>
  <text x="104" y="292" fill="#52525B" font-size="30" font-family="Inter, Arial, sans-serif" font-weight="400">Portfólio e blog técnico sobre performance, segurança e escala.</text>
  <path d="M104 346H560" stroke="#18181B" stroke-width="4" stroke-linecap="round"/>
  <text x="104" y="412" fill="#18181B" font-size="28" font-family="Inter, Arial, sans-serif" font-weight="500">io.alemartins.dev.br</text>
  <text x="104" y="462" fill="#71717A" font-size="20" font-family="Inter, Arial, sans-serif" font-weight="400">Angular 21 • .NET 10 • Clean Architecture</text>
</svg>
